<mxfile host="" modified="2020-06-05T00:16:03.290Z" agent="5.0 (Macintosh; Intel Mac OS X 10_15_4) AppleWebKit/537.36 (KHTML, like Gecko) Code/1.45.1 Chrome/78.0.3904.130 Electron/7.2.4 Safari/537.36" etag="MwbUHmluMpPcFvBkzBz6" version="13.1.3">
    <diagram id="6hGFLwfOUW9BJ-s0fimq" name="Page-1">
        <mxGraphModel dx="699" dy="580" grid="0" gridSize="10" guides="1" tooltips="1" connect="1" arrows="1" fold="1" page="1" pageScale="1" pageWidth="1654" pageHeight="1169" background="#ffffff" math="0" shadow="0">
            <root>
                <mxCell id="0"/>
                <mxCell id="1" parent="0"/>
                <mxCell id="36" value="Local" style="fillColor=none;strokeColor=#B9E0A5;dashed=1;verticalAlign=top;fontStyle=0;fontColor=#5A6C86;strokeWidth=2;" vertex="1" parent="1">
                    <mxGeometry x="50" y="371" width="264" height="151" as="geometry"/>
                </mxCell>
                <mxCell id="38" value="Application" style="fillColor=none;strokeColor=#B9E0A5;dashed=1;verticalAlign=top;fontStyle=0;fontColor=#5A6C86;strokeWidth=2;" vertex="1" parent="1">
                    <mxGeometry x="336" y="371" width="264" height="151" as="geometry"/>
                </mxCell>
                <mxCell id="6" value="CodePipeline" style="fillColor=none;strokeColor=#7EA6E0;dashed=1;verticalAlign=top;fontStyle=1;fontColor=#5A6C86;strokeWidth=2;" parent="1" vertex="1">
                    <mxGeometry x="50" y="50" width="550" height="285" as="geometry"/>
                </mxCell>
                <mxCell id="18" value="Source Management&#10;&#10;&#10;&#10;&#10;&#10;&#10;&#10;&#10;Github" style="fillColor=none;strokeColor=#D5E8D4;verticalAlign=top;fontStyle=1;fontColor=#5A6C86;strokeWidth=2;fontSize=10;" parent="1" vertex="1">
                    <mxGeometry x="70" y="183" width="130" height="130" as="geometry"/>
                </mxCell>
                <mxCell id="19" value="Build &amp; Test&#10;&#10;&#10;&#10;&#10;&#10;&#10;&#10;&#10;CodeBuild" style="fillColor=none;strokeColor=#9AC7BF;verticalAlign=top;fontStyle=1;fontColor=#5A6C86;strokeWidth=2;fontSize=10;" parent="1" vertex="1">
                    <mxGeometry x="260" y="183" width="130" height="130" as="geometry"/>
                </mxCell>
                <mxCell id="21" value="Deploy&#10;&#10;&#10;&#10;&#10;&#10;&#10;&#10;&#10;Elastic Container Service" style="fillColor=none;strokeColor=#67AB9F;verticalAlign=top;fontStyle=1;fontColor=#5A6C86;strokeWidth=2;fontSize=10;" parent="1" vertex="1">
                    <mxGeometry x="449" y="183" width="130" height="130" as="geometry"/>
                </mxCell>
                <mxCell id="3" value="" style="outlineConnect=0;fontColor=#232F3E;gradientColor=#4D72F3;gradientDirection=north;fillColor=#3334B9;strokeColor=#ffffff;dashed=0;verticalLabelPosition=bottom;verticalAlign=top;align=center;html=1;fontSize=12;fontStyle=0;aspect=fixed;shape=mxgraph.aws4.resourceIcon;resIcon=mxgraph.aws4.codebuild;" parent="1" vertex="1">
                    <mxGeometry x="286" y="207" width="78" height="78" as="geometry"/>
                </mxCell>
                <mxCell id="4" value="" style="outlineConnect=0;gradientColor=none;fontColor=#545B64;strokeColor=none;fillColor=#879196;dashed=0;verticalLabelPosition=bottom;verticalAlign=top;align=center;html=1;fontSize=12;fontStyle=0;aspect=fixed;shape=mxgraph.aws4.illustration_desktop;pointerEvents=1" parent="1" vertex="1">
                    <mxGeometry x="172" y="401" width="100" height="91" as="geometry"/>
                </mxCell>
                <mxCell id="5" value="" style="outlineConnect=0;gradientColor=none;fontColor=#545B64;strokeColor=none;fillColor=#879196;dashed=0;verticalLabelPosition=bottom;verticalAlign=top;align=center;html=1;fontSize=12;fontStyle=0;aspect=fixed;shape=mxgraph.aws4.illustration_users;pointerEvents=1" parent="1" vertex="1">
                    <mxGeometry x="85" y="446" width="65" height="65" as="geometry"/>
                </mxCell>
                <mxCell id="7" value="&lt;b&gt;&lt;font color=&quot;#5a6c86&quot;&gt;RDS&lt;/font&gt;&lt;/b&gt;" style="outlineConnect=0;fontColor=#232F3E;gradientColor=#4D72F3;gradientDirection=north;fillColor=#3334B9;strokeColor=#ffffff;dashed=0;verticalLabelPosition=bottom;verticalAlign=top;align=center;html=1;fontSize=12;fontStyle=0;aspect=fixed;shape=mxgraph.aws4.resourceIcon;resIcon=mxgraph.aws4.rds;" parent="1" vertex="1">
                    <mxGeometry x="429" y="401" width="78" height="78" as="geometry"/>
                </mxCell>
                <mxCell id="8" value="&lt;b&gt;&lt;font style=&quot;font-size: 10px&quot; color=&quot;#5a6c86&quot;&gt;ECR&lt;/font&gt;&lt;/b&gt;" style="outlineConnect=0;fontColor=#232F3E;gradientColor=#F78E04;gradientDirection=north;fillColor=#D05C17;strokeColor=#ffffff;dashed=0;verticalLabelPosition=bottom;verticalAlign=top;align=center;html=1;fontSize=12;fontStyle=0;aspect=fixed;shape=mxgraph.aws4.resourceIcon;resIcon=mxgraph.aws4.ecr;" parent="1" vertex="1">
                    <mxGeometry x="400" y="259" width="34" height="34" as="geometry"/>
                </mxCell>
                <mxCell id="9" value="" style="outlineConnect=0;fontColor=#232F3E;gradientColor=#F78E04;gradientDirection=north;fillColor=#D05C17;strokeColor=#ffffff;dashed=0;verticalLabelPosition=bottom;verticalAlign=top;align=center;html=1;fontSize=12;fontStyle=0;aspect=fixed;shape=mxgraph.aws4.resourceIcon;resIcon=mxgraph.aws4.ecs;" parent="1" vertex="1">
                    <mxGeometry x="475" y="206" width="80" height="80" as="geometry"/>
                </mxCell>
                <mxCell id="10" value="&lt;b&gt;&lt;font color=&quot;#5a6c86&quot;&gt;Forgate&lt;/font&gt;&lt;/b&gt;" style="outlineConnect=0;fontColor=#232F3E;gradientColor=#F78E04;gradientDirection=north;fillColor=#D05C17;strokeColor=#ffffff;dashed=0;verticalLabelPosition=bottom;verticalAlign=top;align=center;html=1;fontSize=12;fontStyle=0;aspect=fixed;shape=mxgraph.aws4.resourceIcon;resIcon=mxgraph.aws4.fargate;" parent="1" vertex="1">
                    <mxGeometry x="345" y="401" width="78" height="78" as="geometry"/>
                </mxCell>
                <mxCell id="14" value="" style="shape=image;verticalLabelPosition=bottom;labelBackgroundColor=#ffffff;verticalAlign=top;aspect=fixed;imageAspect=0;image=data:image/png,iVBORw0KGgoAAAANSUhEUgAAAEAAAABACAYAAACqaXHeAAAAGXRFWHRTb2Z0d2FyZQBBZG9iZSBJbWFnZVJlYWR5ccllPAAAAyRpVFh0WE1MOmNvbS5hZG9iZS54bXAAAAAAADw/eHBhY2tldCBiZWdpbj0i77u/IiBpZD0iVzVNME1wQ2VoaUh6cmVTek5UY3prYzlkIj8+IDx4OnhtcG1ldGEgeG1sbnM6eD0iYWRvYmU6bnM6bWV0YS8iIHg6eG1wdGs9IkFkb2JlIFhNUCBDb3JlIDUuMy1jMDExIDY2LjE0NTY2MSwgMjAxMi8wMi8wNi0xNDo1NjoyNyAgICAgICAgIj4gPHJkZjpSREYgeG1sbnM6cmRmPSJodHRwOi8vd3d3LnczLm9yZy8xOTk5LzAyLzIyLXJkZi1zeW50YXgtbnMjIj4gPHJkZjpEZXNjcmlwdGlvbiByZGY6YWJvdXQ9IiIgeG1sbnM6eG1wPSJodHRwOi8vbnMuYWRvYmUuY29tL3hhcC8xLjAvIiB4bWxuczp4bXBNTT0iaHR0cDovL25zLmFkb2JlLmNvbS94YXAvMS4wL21tLyIgeG1sbnM6c3RSZWY9Imh0dHA6Ly9ucy5hZG9iZS5jb20veGFwLzEuMC9zVHlwZS9SZXNvdXJjZVJlZiMiIHhtcDpDcmVhdG9yVG9vbD0iQWRvYmUgUGhvdG9zaG9wIENTNiAoTWFjaW50b3NoKSIgeG1wTU06SW5zdGFuY2VJRD0ieG1wLmlpZDpFNTE3OEEyRTk5QTAxMUUyOUExNUJDMTA0NkE4OTA0RCIgeG1wTU06RG9jdW1lbnRJRD0ieG1wLmRpZDpFNTE3OEEyRjk5QTAxMUUyOUExNUJDMTA0NkE4OTA0RCI+IDx4bXBNTTpEZXJpdmVkRnJvbSBzdFJlZjppbnN0YW5jZUlEPSJ4bXAuaWlkOkU1MTc4QTJDOTlBMDExRTI5QTE1QkMxMDQ2QTg5MDREIiBzdFJlZjpkb2N1bWVudElEPSJ4bXAuZGlkOkU1MTc4QTJEOTlBMDExRTI5QTE1QkMxMDQ2QTg5MDREIi8+IDwvcmRmOkRlc2NyaXB0aW9uPiA8L3JkZjpSREY+IDwveDp4bXBtZXRhPiA8P3hwYWNrZXQgZW5kPSJyIj8+FYrpWAAABrNJREFUeNrkW2lsVFUUvjMWirYUkS5BXApUa2vd6gL+wAWjoP5RiW2EUBajAiqSuPADQ0w1UUQTrcFAUUSJEKriEuMWFKuJIElFSS24YNpQK6WoBbuAktbva880M8O8vnfevJm+CSf5cme599xzvnfffffce17AJFjycnLzUVwDXAgUAucBY4BMIEOqdQIdwJ/Az4J64OvWtoONibQvkACHgyiuBe4CbgLOjVNlE/AZsAmoBSE9viQAjueieBCYC5yVoAvWDKwHqkBEmy8IgON09lHgXmCESY4cBaqBlSCieUgIgOPDUCwBngBOM0MjXdL/CyDiv6QRAOcvR7EBKDL+kD3AbJBQl1AC4DjrLwaeBYYbf8m/ciu+BCJ6PScAzp+K4nXgTuNveQuYAxK6PSMAzo9C8TFwtUkN2Q7cDBIOx02AOP8FUGpSSzgf3GBHQsDGec7unwOTTWrKDiGhS02ATHjvALeb1JZ3gRlWE+MpVq0yMzIekRk/1YWP6o7Ors5vHI8AXH1Odl8BaTbKrwd4j10MTAduS8JqkKvA94BPgN0A56htNm2OMyDDKNhuSwCcT5dIrMBG6S4oLI1qezqKBcBjwGiPHW8HVgCr0W97VL/fobjMpv2vQAnaHgv/MdYVXurAeSNPhggRw56BQatRVgL3A0H5+xDwI8Dw9g/5Hlq+clmdDYwF8iV0zpb/GP2tApZHOx4m2xwQUCC+VVqOABg+AUUDkO6AgHkwaL2DJXORxPVNylUnw+gpXObaLXFRlxHoaw7U8uoXQ99vViNgqUPnKQfsKojhdW7GuxDW5JUtIuni432hH4JhLJ7Dq6qwcZiPZnpNXDJPfI0kQEJbjVM5PiIgW3nhlkQQILH9LGWnV/iIAK0ts8TngREwDchVKrnKRwRobckVnwcIKFcq4ONrkY8IWBT2SHUq5eEE3Khs/CRm6Z1+8V5sqVQ26/M5gHuhSJ79TqUFmIhOj/ppwQ8/Rshqb5yiWXFQFhsaWeU352UU0KaXlc2mBI1+Y3OzjyO/Gm2kSAIKFQ2awfQ+v3oP23gL/K5oUhh0GPiEZG8KxP97FHULgsqwtTUFCDioqHsGCRipaHA8BQjQrAcyg4roj5KVAgSMUtRNDyqVj0wBAlQ2koBuRf3xKUBAvqJuN1eCrYpAiHNAltNjpyFYDfL47oix38wdmDA5AvYr+kjzWRgcLVcqnKfsJwGNyk5u9TEBtyjrNwaVgRClTPKA/Db8aVOZslkDG2nD2vEuOkqGlLmYpHcGJLlJu8LjtvJFgx06Jvnq8xC33gUBeUE4waWjduua5wdVPrr6VS6cr6PvoXv5Ixed3g3mH/fB1V9OW1w07fM5IEouUEZR4bIWWJzsTRJ55r8I3ONSRRFs3hsIU8hkgkkulf0CPAx8qElQcuk4beYp9Epgoks138LOvqSPgfyAzIwMZlnFSobgIegc4H3gH6AkxmKDub9Mjb0DeoYDrZ1dne0eO14AvfPx8RXgAYaycahbBvt+GLgFpIM0md3PjqrMTMxpYKxB6p1v+s/n7bbSuMCqldmZyc+fRh9ND+IsAxrmG3C3qtj0J1uP84hLrnwnwJbjEQRIxzw0XB2jER93C9Bog9TjsRgzLpzuJr0BzHV6e8gwf9XoziqdCv1YE/oSTQBHwfem/3w+5syPxuukLtfdO0zk+WIs+YuPKLQ7ohzyWTIix3joPPMTLg1d/Yg5gIL7ogf32U/4WGGhYDr+34J6bUALPpPA62w6XYMOP9BaCv3HoD/PeJubODN6U/eEq4cKTIurttpBAZ4L+87TmKdtOt0ah8FbPXS+WnyLEKskqUy5FaweM5dA2e6w+pNkZuajhfMD3/zYBfDKb3Y6+cWwgytOL7bh98nQ73BEgHReIvd4Roy/a6Cs3CRYJOnq7zjV8HWcybC33mpLLKZIA84FPRYhcSokUNL2Civnjd0MjoZbUCy0+PtNkDDD5wQsFB8sxWm2+GJZd8eSt4HnZXnZ66Nb4CHYYxuxat4XmI1inbHeczskq77DMrK4z8AgK3+Q/L5EEMBn/PzQos0zAsQgvg5XY3TpNKOTSAD3NsrQX63TBqq9PVHM9NgvfXi/06ZSjfNqAoQEHj9Pled+pw8cpw2co6aKbSoJxDlJnYniKdP/sqSVrrEw7IBL/TnG+rSXEy7fYVoG/S1uffDkzVEYypB1qewJRCdb5rp9yxN6mQDZFmOS2wisCIXo8Yin7w7LiKiQEcFYfhOMnBmnzo1CLIO09Qyt47niJxDQ29trTmY56Qn4X4ABAFR7IoDmVT5NAAAAAElFTkSuQmCC;" parent="1" vertex="1">
                    <mxGeometry x="103" y="216" width="64" height="64" as="geometry"/>
                </mxCell>
                <mxCell id="2" value="" style="outlineConnect=0;fontColor=#232F3E;gradientColor=#4D72F3;gradientDirection=north;fillColor=#3334B9;strokeColor=#ffffff;dashed=0;verticalLabelPosition=bottom;verticalAlign=top;align=center;html=1;fontSize=12;fontStyle=0;aspect=fixed;shape=mxgraph.aws4.resourceIcon;resIcon=mxgraph.aws4.codepipeline;" parent="1" vertex="1">
                    <mxGeometry x="286" y="80" width="78" height="78" as="geometry"/>
                </mxCell>
                <mxCell id="29" value="" style="edgeStyle=orthogonalEdgeStyle;html=1;endArrow=block;elbow=vertical;startArrow=none;endFill=1;strokeColor=#545B64;rounded=0;fontSize=10;entryX=0.5;entryY=1;entryDx=0;entryDy=0;strokeWidth=2;" parent="1" source="36" target="18" edge="1">
                    <mxGeometry width="100" relative="1" as="geometry">
                        <mxPoint x="182" y="405" as="sourcePoint"/>
                        <mxPoint x="450" y="315" as="targetPoint"/>
                        <Array as="points">
                            <mxPoint x="182" y="350"/>
                            <mxPoint x="135" y="350"/>
                        </Array>
                    </mxGeometry>
                </mxCell>
                <mxCell id="30" value="" style="edgeStyle=orthogonalEdgeStyle;html=1;endArrow=block;elbow=vertical;startArrow=none;endFill=1;strokeColor=#545B64;rounded=0;fontSize=10;exitX=1;exitY=0.5;exitDx=0;exitDy=0;strokeWidth=2;" parent="1" source="18" edge="1">
                    <mxGeometry width="100" relative="1" as="geometry">
                        <mxPoint x="350" y="315" as="sourcePoint"/>
                        <mxPoint x="260" y="248" as="targetPoint"/>
                    </mxGeometry>
                </mxCell>
                <mxCell id="31" value="" style="edgeStyle=orthogonalEdgeStyle;html=1;endArrow=block;elbow=vertical;startArrow=none;endFill=1;strokeColor=#545B64;rounded=0;fontSize=10;exitX=1;exitY=0.5;exitDx=0;exitDy=0;strokeWidth=2;" parent="1" source="19" edge="1">
                    <mxGeometry width="100" relative="1" as="geometry">
                        <mxPoint x="350" y="315" as="sourcePoint"/>
                        <mxPoint x="450" y="248" as="targetPoint"/>
                    </mxGeometry>
                </mxCell>
                <mxCell id="32" value="" style="edgeStyle=orthogonalEdgeStyle;html=1;endArrow=block;elbow=vertical;startArrow=none;endFill=1;strokeColor=#545B64;rounded=0;fontSize=10;exitX=0.5;exitY=1;exitDx=0;exitDy=0;strokeWidth=2;entryX=0.5;entryY=0;entryDx=0;entryDy=0;" parent="1" source="21" target="38" edge="1">
                    <mxGeometry width="100" relative="1" as="geometry">
                        <mxPoint x="350" y="315" as="sourcePoint"/>
                        <mxPoint x="472" y="401.5" as="targetPoint"/>
                        <Array as="points">
                            <mxPoint x="514" y="348"/>
                            <mxPoint x="468" y="348"/>
                        </Array>
                    </mxGeometry>
                </mxCell>
                <mxCell id="35" value="Alice CI/CD" style="text;html=1;strokeColor=none;fillColor=none;align=left;verticalAlign=middle;whiteSpace=wrap;rounded=0;fontSize=13;fontColor=#000000;" parent="1" vertex="1">
                    <mxGeometry x="40" y="20" width="160" height="20" as="geometry"/>
                </mxCell>
                <mxCell id="39" value="&lt;b&gt;&lt;font color=&quot;#5a6c86&quot;&gt;CloudWatch&lt;/font&gt;&lt;/b&gt;" style="outlineConnect=0;fontColor=#232F3E;gradientColor=#F34482;gradientDirection=north;fillColor=#BC1356;strokeColor=#ffffff;dashed=0;verticalLabelPosition=bottom;verticalAlign=top;align=center;html=1;fontSize=12;fontStyle=0;aspect=fixed;shape=mxgraph.aws4.resourceIcon;resIcon=mxgraph.aws4.cloudwatch;" vertex="1" parent="1">
                    <mxGeometry x="513" y="401" width="78" height="78" as="geometry"/>
                </mxCell>
            </root>
        </mxGraphModel>
    </diagram>
</mxfile>